<svg width="661" height="286" viewBox="0 0 661 286" fill="none" xmlns="http://www.w3.org/2000/svg">
<path d="M302.475 1.27031C271.822 5.52508 254.416 7.65247 243.005 8.52276C235.85 9.10296 228.597 9.97325 226.857 10.5534C222.312 12.0039 218.154 17.2257 217.187 22.7376C215.156 34.825 217.477 105.125 220.378 117.793C222.602 127.656 227.727 134.812 236.72 140.904C249.968 149.704 261.378 152.411 289.711 153.282C313.112 154.055 320.268 152.895 325.296 147.866C329.648 143.612 331.002 139.067 331.002 129.203C331.002 113.732 327.327 105.996 317.657 101.547L312.145 98.9366L291.838 99.4201C259.154 100.194 257.22 100.097 254.319 98.163C252.869 97.196 251.998 95.9389 252.288 95.1653C253.352 92.2644 260.218 90.8139 277.043 89.7502C298.511 88.3964 315.143 86.269 319.398 84.1416C330.228 78.8232 329.648 61.1272 318.431 55.2285C314.853 53.2945 312.822 53.0044 304.506 53.0044C299.091 53.0044 290.775 53.4879 285.94 53.9714C269.501 55.712 257.414 55.6153 253.836 53.6813C249.774 51.4572 250.064 49.2332 254.803 46.9124C257.317 45.6553 262.345 44.8817 273.176 44.2048C313.499 41.6906 316.98 41.0137 322.202 35.0184C325.877 30.957 327.134 26.3154 327.134 17.4191C327.134 9.39305 325.587 4.94489 321.815 1.94721C318.721 -0.470274 315.723 -0.566973 302.475 1.27031Z" fill="white"/>
<path fill-rule="evenodd" clip-rule="evenodd" d="M365.234 145.449C387.088 155.506 421.222 150.477 436.694 135.005C447.621 124.078 453.81 101.741 453.81 72.7312C453.81 64.3184 453.326 58.9996 451.973 53.7778C446.557 32.5041 436.404 24.0913 411.262 19.6432C401.108 17.8059 376.934 17.8059 370.455 19.6432C357.014 23.3178 346.57 35.1152 342.219 51.554C336.707 72.4409 338.544 109.283 346.087 126.302C348.988 132.975 358.271 142.258 365.234 145.449ZM396.709 95.7323C394.306 95.7321 392.357 90.3745 392.357 83.7657C392.357 77.157 394.306 71.7994 396.709 71.7992C399.112 71.7992 401.06 77.1568 401.06 83.7657C401.06 90.3747 399.112 95.7323 396.709 95.7323Z" fill="white"/>
<path d="M166.903 20.997C156.266 24.6715 151.528 29.6999 144.082 45.2685C139.44 54.9384 136.056 59.2899 132.188 60.7404C128.32 62.1909 125.806 60.2569 122.421 53.1011C118.843 45.4619 111.494 36.8557 106.949 35.0184C102.598 33.1811 95.3455 33.3745 90.7039 35.5019C82.7746 39.0797 76.1023 49.5233 73.6849 62.0942C72.5245 68.3796 72.5245 92.9412 73.7816 109.187C74.942 124.175 77.3594 144.965 78.2297 147.19C79.1 149.51 87.7063 154.539 94.1851 156.569C101.147 158.793 112.171 158.987 116.619 157.053C126.386 152.798 129.964 140.614 128.127 117.019C127.74 111.604 127.45 107.156 127.45 107.156C127.546 107.156 129.77 109.283 132.478 111.894C142.051 121.081 150.754 120.404 158.49 109.67L160.521 106.866L161.778 116.439C164.002 134.425 169.901 147.963 177.25 151.831C181.214 153.862 187.887 154.055 191.561 152.218C198.524 148.64 203.165 139.164 204.326 126.206C206.936 97.7762 206.26 62.6744 202.875 46.0421C198.427 24.5748 184.502 14.9049 166.903 20.997Z" fill="white"/>
<path d="M480.209 27.8626C472.666 29.6032 471.312 32.4075 466.477 55.9054C461.642 79.4033 459.225 110.637 461.449 122.048C464.737 139.744 475.374 149.897 489.105 148.447C496.744 147.673 503.61 143.708 512.603 134.909C516.954 130.557 520.532 127.56 520.532 128.236C520.532 130.364 533.103 142.741 537.455 144.772C543.063 147.383 549.832 147.383 556.988 144.772C567.335 140.904 581.356 124.078 587.158 108.703C591.606 96.7125 593.347 82.1109 591.123 74.2783C589.479 68.2829 584.837 62.0942 579.809 59.1932C568.012 52.2308 554.957 58.2262 545.481 74.9552L542.386 80.3703L541.516 77.5661C539.195 70.7004 534.07 66.5423 527.785 66.5423C521.403 66.5423 515.891 70.0235 509.702 78.0496L507.188 81.434L508.638 74.6651C509.509 70.9905 510.185 63.6414 510.282 58.3229C510.379 46.3322 508.155 40.6269 501.096 34.2448C495.39 29.1197 486.591 26.4121 480.209 27.8626Z" fill="white"/>
<path d="M626.902 162.371C618.682 163.435 600.793 164.595 587.255 164.982C565.401 165.659 562.21 165.949 559.502 167.593C552.636 171.654 551.283 180.357 551.089 222.712C550.993 253.365 550.993 253.655 553.313 258.781C558.052 269.224 571.299 277.927 587.545 281.311C599.342 283.729 622.453 285.373 636.958 284.889C650.786 284.503 655.041 282.859 658.619 276.767C660.553 273.479 660.843 271.932 660.553 264.292C660.069 252.592 657.458 247.757 649.432 243.792L643.824 241.085L615.781 240.601C600.406 240.311 586.965 239.731 586.094 239.247C583.58 238.087 583.967 235.863 587.061 234.606C588.512 234.026 599.052 233.252 610.463 232.768C633.38 231.995 647.208 230.448 651.27 228.417C655.718 226.096 657.168 222.905 656.685 216.91C656.201 211.108 654.074 207.917 648.659 205.016C646.145 203.565 643.34 203.469 628.352 203.855C596.635 204.726 589.866 204.532 586.965 202.598C580.292 198.247 585.031 196.893 609.496 196.023C645.274 194.669 649.916 193.702 654.654 186.643C659.683 179.1 658.135 164.886 651.947 161.791C648.659 160.051 645.951 160.147 626.902 162.371Z" fill="white"/>
<path fill-rule="evenodd" clip-rule="evenodd" d="M313.789 284.792C330.615 285.663 343.573 282.472 355.854 274.543C367.748 266.807 373.163 257.04 372.293 244.372C371.712 235.669 369.488 230.641 363.879 225.903C358.368 221.165 351.986 219.327 340.769 219.327L331.486 219.231L338.254 215.653C351.695 208.497 357.594 203.372 361.075 195.636C363.59 190.221 363.299 185.772 360.398 179.777C356.047 171.074 348.698 166.916 333.903 164.595C324.91 163.241 293.192 161.985 288.454 162.855C275.496 165.079 269.695 168.077 266.6 173.975C264.086 179.003 262.538 190.318 261.281 213.042C260.024 236.636 260.992 248.047 265.15 259.071C270.952 274.252 288.454 283.535 313.789 284.792ZM313.57 208.145C311.822 208.145 310.405 204.249 310.405 199.442C310.405 194.636 311.822 190.739 313.57 190.739C315.317 190.74 316.734 194.636 316.734 199.442C316.734 204.248 315.317 208.145 313.57 208.145ZM313.668 260.363C311.866 260.362 310.405 254.68 310.405 247.671C310.405 240.662 311.866 234.979 313.668 234.979C315.471 234.979 316.932 240.662 316.932 247.671C316.932 254.68 315.471 260.363 313.668 260.363Z" fill="white"/>
<path d="M21.0804 168.85C16.6323 170.881 11.894 176.006 8.99303 181.615C3.86797 191.671 1.25709 212.268 0.580196 247.467L0 274.156L3.38448 276.67C12.2808 283.439 26.3989 286.727 35.8754 284.212C41.5807 282.569 47.1893 277.347 49.0265 271.738C51.2506 265.066 52.5077 255.686 52.5077 246.403V238.184L55.9889 242.342C60.147 247.273 65.6588 250.271 70.3971 250.271C74.6518 250.271 77.0693 249.111 81.6142 244.759L85.0954 241.471L85.6756 250.948C86.5459 266.42 90.994 277.153 98.0531 280.828C99.697 281.602 103.372 282.278 106.466 282.278C110.817 282.278 112.558 281.795 115.749 279.571C121.068 275.8 124.742 269.514 126.483 261.391C130.351 242.632 132.091 205.403 129.77 192.638C126.773 176.103 115.749 167.206 99.8904 168.27C89.1567 169.044 82.7746 173.395 75.0386 185.096C69.0433 194.379 64.7885 198.053 60.5338 198.053C56.8592 198.053 56.1823 197.183 52.7011 188.77C49.1232 179.971 44.5784 173.492 39.7434 170.301C34.6183 166.916 26.5923 166.239 21.0804 168.85Z" fill="white"/>
<path d="M390.955 168.56C383.123 170.784 381.479 172.138 380.705 177.36C379.545 185.096 380.705 196.41 383.026 200.084C386.314 205.499 391.922 208.013 401.689 208.497C406.621 208.787 411.456 208.497 413.486 207.82C421.996 205.016 427.217 193.605 424.993 182.968C422.866 172.621 416.484 167.883 404.01 167.4C399.175 167.206 394.34 167.69 390.955 168.56Z" fill="white"/>
<path d="M449.265 168.657C444.043 170.591 439.111 176.103 436.404 183.162C434.47 188.093 434.083 191.188 433.793 205.306C433.019 231.995 436.307 257.233 441.722 267.677C445.107 274.059 454.583 280.054 465.51 282.665C474.503 284.793 494.037 285.566 505.834 284.212C524.497 281.988 531.266 279.184 537.648 270.771C541.516 265.646 542.773 261.682 543.45 251.625C544.417 238.28 540.066 228.707 531.073 224.065C526.044 221.551 515.601 220.198 509.799 221.261C497.711 223.582 494.133 228.9 492.876 246.403C492.49 250.948 491.619 255.589 490.942 256.847C489.492 259.071 485.721 259.844 485.721 257.717C485.721 257.137 485.527 244.566 485.334 229.964C485.044 204.822 483.98 191.671 481.756 183.258C480.402 178.133 471.989 169.527 466.864 168.173C461.642 166.723 454.197 166.916 449.265 168.657Z" fill="white"/>
<path fill-rule="evenodd" clip-rule="evenodd" d="M177.926 282.858C187.209 285.082 208.484 285.083 216.8 282.762C243.392 275.413 252.192 261.004 252.192 224.645C252.192 207.143 251.321 201.341 247.26 192.638C242.038 181.421 234.206 175.716 220.765 173.298C214.286 172.138 191.948 171.654 184.502 172.621C160.714 175.425 148.82 185.192 143.889 205.982C139.731 223.582 141.858 249.304 148.433 262.648C153.075 271.738 164.292 279.474 177.926 282.858ZM197.266 240.056C194.863 240.056 192.915 234.698 192.915 228.09C192.915 221.481 194.863 216.123 197.266 216.123C199.67 216.123 201.618 221.481 201.618 228.09C201.618 234.699 199.67 240.056 197.266 240.056Z" fill="white"/>
<path d="M388.151 222.228C383.509 223.389 382.252 225.032 381.285 231.995C380.028 240.698 380.125 265.936 381.382 271.255C382.832 276.863 388.151 282.569 393.373 284.019C399.465 285.663 409.231 285.276 413.873 283.245C421.706 279.668 425.283 268.064 424.607 248.24C424.316 238.377 423.93 235.573 422.189 232.382C417.838 224.162 411.746 221.165 399.271 221.358C395.017 221.455 389.988 221.841 388.151 222.228Z" fill="white"/>
</svg>
